<svg width="473" height="388" viewBox="0 0 473 388" fill="none" xmlns="http://www.w3.org/2000/svg">
<rect width="473" height="388" fill="black"/>
<path d="M82.5 31L0 85.5V327.5L82.5 377H91.5L163.5 328V54L91.5 31H82.5Z" fill="#0F125F"/>
<path d="M63 94.5L19 104C18.3333 104.833 17.2 106.9 18 108.5C17.8333 109.167 18.7 110.6 23.5 111L64.5 101.5C65.1667 101.5 66.7 101 67.5 99C67.1667 97.8333 65.8 95.3 63 94.5Z" fill="#010000"/>
<path d="M65 131.5L18 138C17 139.667 15.9 143.4 19.5 145L66.5 139C67.6666 137.333 69 133.5 65 131.5Z" fill="#010000"/>
<path d="M65.5 205L18.5 205.5C17.6667 206.5 16.5 209.1 18.5 211.5L65.5 212.5C66.5 211.333 67.9 208.2 65.5 205Z" fill="#010000"/>
<path d="M82.5 377V31H90.5V377H82.5Z" fill="#010000"/>
<path d="M65.9001 170.5L17.4001 172.5C16.0667 174.167 14.5001 178 18.9001 180L65.9001 178C67.2334 176.667 69.1001 173.3 65.9001 170.5Z" fill="#010000"/>
<path d="M174 376V1H302V376H174Z" fill="#0F125F"/>
<path d="M281.964 58C282.353 56.4 279.531 54.6667 278.071 54H198.276C197.627 54.1667 196.135 55 195.357 57C194.189 59 196.167 60.5 197.303 61H278.071C279.206 60.6667 281.574 59.6 281.964 58Z" fill="#010000"/>
<path d="M281.964 95C282.353 93.4 279.531 91.6667 278.071 91H198.276C197.627 91.1667 196.135 92 195.357 94C194.189 96 196.167 97.5 197.303 98H278.071C279.206 97.6667 281.574 96.6 281.964 95Z" fill="#010000"/>
<path d="M281.964 128C282.353 126.4 279.531 124.667 278.071 124H198.276C197.627 124.167 196.135 125 195.357 127C194.189 129 196.167 130.5 197.303 131H278.071C279.206 130.667 281.574 129.6 281.964 128Z" fill="#010000"/>
<path d="M281.964 165C282.353 163.4 279.531 161.667 278.071 161H198.276C197.627 161.167 196.135 162 195.357 164C194.189 166 196.167 167.5 197.303 168H278.071C279.206 167.667 281.574 166.6 281.964 165Z" fill="#010000"/>
<path d="M281.964 200C282.353 198.4 279.531 196.667 278.071 196H198.276C197.627 196.167 196.135 197 195.357 199C194.189 201 196.167 202.5 197.303 203H278.071C279.206 202.667 281.574 201.6 281.964 200Z" fill="#010000"/>
<path d="M281.964 237C282.353 235.4 279.531 233.667 278.071 233H198.276C197.627 233.167 196.135 234 195.357 236C194.189 238 196.167 239.5 197.303 240H278.071C279.206 239.667 281.574 238.6 281.964 237Z" fill="#010000"/>
<path d="M284.783 381H192C191.5 381.333 190.6 382.2 191 383C191.4 383.8 194.375 386 195.813 387H282C283.5 386.333 286.4 384.6 286 383C286 381.8 285.189 381.167 284.783 381Z" fill="#0F125F"/>
<path d="M391.761 31L473 85.5V327.5L391.761 377H382.899L312 328V54L382.899 31H391.761Z" fill="#0F125F"/>
<path d="M391.761 377V31H383.884V377H391.761Z" fill="#010000"/>
<path d="M408.108 170.5L455.866 172.5C457.179 174.167 458.722 178 454.389 180L408.108 178C406.795 176.667 404.956 173.3 408.108 170.5Z" fill="#010000"/>
<path d="M406.602 211.055L454.851 210.797C456.228 209.264 457.905 205.687 453.596 203.645L406.837 203.953C405.471 205.171 403.511 208.295 406.602 211.055Z" fill="#010000"/>
<path d="M411.198 293L453.981 283.788C454.629 282.98 455.731 280.976 454.953 279.424C455.115 278.778 454.273 277.388 449.605 277L409.739 286.212C409.091 286.212 407.6 286.697 406.822 288.636C407.146 289.768 408.475 292.224 411.198 293Z" fill="#010000"/>
<path d="M407.461 253.143L453.576 249.867C454.65 248.329 455.948 244.81 452.543 243.045L406.459 245.841C405.223 247.369 403.692 250.968 407.461 253.143Z" fill="#010000"/>
<ellipse cx="166" cy="148.5" rx="48" ry="48.5" fill="#D4FBE8"/>
<rect x="170" y="187.406" width="22.026" height="99" transform="rotate(-21.5 170 187.406)" fill="#D4FBE8"/>
<circle cx="237" cy="308" r="54" fill="#D4FBE8"/>
<rect x="354.61" y="159.352" width="22.519" height="141.838" transform="rotate(44 354.61 159.352)" fill="#D4FBE8"/>
<ellipse cx="391" cy="124" rx="64" ry="63" fill="#D4FBE8"/>
<circle cx="53.5" cy="268.5" r="34.5" fill="#D4FBE8"/>
<rect x="126.69" y="167.241" width="20.2065" height="99" transform="rotate(42.5 126.69 167.241)" fill="#D4FBE8"/>
</svg>
